<svg width="207" height="40" viewBox="0 0 207 40" fill="none" xmlns="http://www.w3.org/2000/svg">
<path d="M6.47189 18.1229C6.47189 11.2413 12.048 5.66522 18.9271 5.66522C22.0731 5.66522 24.9463 6.83182 27.138 8.75606C24.7523 5.05701 20.5997 2.61108 15.873 2.61108C8.4748 2.61108 2.47656 8.60925 2.47656 16.0073C2.47656 22.4354 7.00408 27.8044 13.0443 29.1021C9.13282 27.0022 6.47189 22.8732 6.47189 18.1229Z" fill="#6F3DCB"/>
<mask id="mask0_1527_13627" style="mask-type:luminance" maskUnits="userSpaceOnUse" x="0" y="0" width="41" height="40">
<path d="M0 0H40.939V40H0V0Z" fill="white"/>
</mask>
<g mask="url(#mask0_1527_13627)">
<path d="M32.4612 0.0917469C32.2148 -7.71135e-06 32.1047 0.256906 32.0628 0.602954C31.9815 1.2767 32.2515 1.94258 32.7627 2.39087C38.1029 7.07038 37.0674 18.5372 33.5754 17.8529C31.2841 17.4046 33.7248 10.5912 31.8137 10.3605C30.5448 10.2058 29.4176 13.3622 29.4988 17.5278C29.5434 19.9082 30.3089 21.8744 30.9827 23.5811C31.9553 26.0532 31.0613 28.8819 28.8224 30.3106C21.6969 34.8591 12.1254 34.0202 5.90174 27.7966C2.61425 24.5091 0.831557 20.2857 0.548423 15.9837C-0.825298 22.3542 0.96788 29.2725 5.9332 34.2142C12.1884 40.4457 22.1793 41.7433 29.8265 37.3286C37.0858 33.1341 40.1216 24.5091 40.5541 16.4897C41.1021 6.28915 35.248 1.143 32.4612 0.0917469ZM31.4598 5.67308C34.2334 8.11115 35.2847 12.3817 35.1615 15.8212C35.5967 14.7568 35.8326 13.1944 35.7776 11.5218C35.7068 9.28561 35.1746 7.1936 34.2833 5.49744C33.1324 4.38851 31.9998 3.68855 31.1504 3.36872C30.8988 3.27434 30.7913 3.54436 30.7493 3.9009C30.6759 4.57202 30.9538 5.23004 31.4598 5.67308Z" fill="#6F3DCB"/>
</g>
<mask id="mask1_1527_13627" style="mask-type:luminance" maskUnits="userSpaceOnUse" x="13" y="17" width="14" height="14">
<path d="M13.4219 17.7847H26.6741V30.2136H13.4219V17.7847Z" fill="white"/>
</mask>
<g mask="url(#mask1_1527_13627)">
<path fill-rule="evenodd" clip-rule="evenodd" d="M19.9554 19.1689C17.5513 17.4492 13.7998 18.0993 13.9414 22.0553C14.0856 26.1082 19.1846 29.4638 20.3355 30.1717C21.3868 29.5241 25.757 26.6509 26.5906 23.0567C25.8723 23.7567 24.8918 24.1892 23.8091 24.1892C21.607 24.1892 19.8217 22.4039 19.8217 20.2018C19.8217 19.8427 19.8688 19.4992 19.9554 19.1689Z" fill="#4DAFA1"/>
</g>
<path fill-rule="evenodd" clip-rule="evenodd" d="M20.418 15.6456C20.418 15.6456 20.1243 15.7583 19.6839 16.2171C19.2435 16.6732 18.7873 17.4387 17.2117 17.4387C15.6388 17.4387 13.7958 15.7347 14.0239 13.3386C13.4681 13.2075 13.6332 15.1475 12.3277 16.1096C11.0221 17.0717 8.05446 16.8934 8.16719 13.5981C9.09786 13.8104 11.5281 14.2351 11.7902 12.1641C12.0498 10.0931 14.4145 10.3369 14.7736 11.4772C15.4762 11.1024 17.0256 10.4339 18.5252 11.0054C20.0247 11.5769 20.5648 12.7671 20.3524 13.1577C20.1401 13.5483 19.9434 14.7726 20.418 15.6456Z" fill="#4DAFA1"/>
<mask id="mask2_1527_13627" style="mask-type:luminance" maskUnits="userSpaceOnUse" x="20" y="17" width="7" height="7">
<path d="M20.8047 17.1135H26.6745V23.1536H20.8047V17.1135Z" fill="white"/>
</mask>
<g mask="url(#mask2_1527_13627)">
<path d="M26.6893 20.2018C26.6893 20.3905 26.671 20.5767 26.6343 20.7628C26.5975 20.9463 26.5425 21.1272 26.4691 21.3029C26.3983 21.4759 26.3092 21.641 26.2043 21.7983C26.0994 21.9556 25.9788 22.0998 25.8451 22.2335C25.7141 22.3672 25.5673 22.4878 25.41 22.5927C25.2527 22.6975 25.0875 22.7867 24.9145 22.8575C24.7388 22.9309 24.5606 22.9833 24.3744 23.0226C24.1883 23.0593 24.0022 23.0777 23.8134 23.0777C23.6246 23.0777 23.4385 23.0593 23.2524 23.0226C23.0662 22.9833 22.888 22.9309 22.7123 22.8575C22.5393 22.7867 22.3741 22.6975 22.2168 22.5927C22.0595 22.4878 21.9127 22.3672 21.779 22.2335C21.648 22.0998 21.5274 21.9556 21.4225 21.7983C21.3176 21.641 21.2285 21.4759 21.1577 21.3029C21.0843 21.1272 21.0293 20.9463 20.9926 20.7628C20.9559 20.5767 20.9375 20.3905 20.9375 20.2018C20.9375 20.013 20.9559 19.8269 20.9926 19.6408C21.0293 19.4546 21.0843 19.2764 21.1577 19.1007C21.2285 18.9277 21.3176 18.7599 21.4225 18.6053C21.5274 18.448 21.648 18.3012 21.779 18.1675C21.9127 18.0338 22.0595 17.9158 22.2168 17.8109C22.3741 17.7061 22.5393 17.6169 22.7123 17.5461C22.888 17.4727 23.0662 17.4177 23.2524 17.381C23.4385 17.3443 23.6246 17.3259 23.8134 17.3259C24.0022 17.3259 24.1883 17.3443 24.3744 17.381C24.5606 17.4177 24.7388 17.4727 24.9145 17.5461C25.0875 17.6169 25.2527 17.7061 25.41 17.8109C25.5673 17.9158 25.7141 18.0338 25.8451 18.1675C25.9788 18.3012 26.0994 18.448 26.2043 18.6053C26.3092 18.7599 26.3983 18.9277 26.4691 19.1007C26.5425 19.2764 26.5975 19.4546 26.6343 19.6408C26.671 19.8269 26.6893 20.013 26.6893 20.2018Z" fill="#4DAFA1"/>
</g>
<path d="M55.5834 25.9484V28.9265H44.2266V9.53735H47.8339V25.9484H55.5834Z" fill="#6F3DCB"/>
<path d="M64.8986 23.0539C63.9391 23.0958 63.1369 23.1797 62.4867 23.3055C61.8365 23.4261 61.3122 23.5782 60.9137 23.7669C60.5205 23.9504 60.2426 24.1654 60.0748 24.4171C59.907 24.6688 59.8232 24.9414 59.8232 25.235C59.8232 25.817 59.9936 26.2312 60.337 26.4829C60.6778 26.7346 61.1261 26.8604 61.6792 26.8604C62.3635 26.8604 62.9507 26.7398 63.441 26.4934C63.9365 26.2496 64.4214 25.8747 64.8986 25.3713V23.0539ZM57.3064 17.0872C58.8925 15.6348 60.7984 14.906 63.0215 14.906C63.8237 14.906 64.5447 15.0397 65.1817 15.3045C65.8161 15.5719 66.351 15.9389 66.7861 16.4055C67.2266 16.8748 67.5621 17.4384 67.7928 18.0938C68.0235 18.744 68.1389 19.4571 68.1389 20.233V28.9262H66.6288C66.3142 28.9262 66.0731 28.8816 65.9053 28.7899C65.7375 28.6929 65.6038 28.5015 65.5068 28.2131L65.2132 27.2274C64.8619 27.5368 64.5211 27.8094 64.1855 28.0453C63.8552 28.2839 63.5144 28.4831 63.1578 28.6431C62.8013 28.8056 62.4159 28.9262 62.0043 29.0101C61.598 29.094 61.1497 29.1359 60.6621 29.1359C60.0801 29.1359 59.5426 29.0573 59.0472 28.9052C58.5569 28.7532 58.1348 28.5172 57.7783 28.2026C57.4218 27.888 57.1439 27.5001 56.9499 27.0387C56.7532 26.572 56.6562 26.0294 56.6562 25.4133C56.6562 25.0646 56.7113 24.7186 56.824 24.3751C56.942 24.0343 57.1308 23.704 57.3903 23.3894C57.6551 23.0748 57.9985 22.7812 58.418 22.5086C58.8427 22.2307 59.3617 21.9895 59.97 21.785C60.5834 21.5753 61.2965 21.4075 62.1092 21.2817C62.9271 21.1506 63.8552 21.0693 64.8986 21.0405V20.233C64.8986 19.3103 64.702 18.6286 64.3113 18.1882C63.9181 17.7478 63.3518 17.5276 62.6125 17.5276C62.0725 17.5276 61.6268 17.5905 61.2703 17.7163C60.919 17.8422 60.6096 17.9837 60.337 18.1358C60.0696 18.2905 59.8258 18.4294 59.6029 18.5552C59.3853 18.6811 59.1442 18.744 58.8794 18.744C58.6487 18.744 58.4521 18.6863 58.2921 18.5657C58.1296 18.4478 58.0011 18.3088 57.9041 18.1463L57.3064 17.0872Z" fill="#6F3DCB"/>
<path d="M82.9858 14.4292L77.5329 28.1872H74.5233L69.0703 14.4292H71.7968C72.0485 14.4292 72.2582 14.4895 72.426 14.6075C72.5938 14.7202 72.7012 14.867 72.751 15.0479L75.4041 22.3883C75.5509 22.8235 75.6768 23.2456 75.7816 23.6571C75.8917 24.0714 75.9861 24.4803 76.0648 24.884C76.1539 24.4803 76.2535 24.0714 76.3584 23.6571C76.4685 23.2456 76.5996 22.8235 76.7464 22.3883L79.4624 15.0479C79.5253 14.867 79.6354 14.7202 79.7979 14.6075C79.9578 14.4895 80.1492 14.4292 80.3747 14.4292H82.9858Z" fill="#6F3DCB"/>
<path d="M93.6082 19.7248C93.6082 19.3001 93.5479 18.8964 93.43 18.5189C93.3094 18.1361 93.1285 17.8005 92.8847 17.5122C92.6461 17.2264 92.342 17.0036 91.9724 16.841C91.6001 16.6733 91.1675 16.5894 90.672 16.5894C89.7204 16.5894 88.968 16.862 88.4175 17.4073C87.8643 17.9526 87.5104 18.726 87.3583 19.7248H93.6082ZM87.2954 21.7277C87.3505 22.4355 87.4763 23.0463 87.6729 23.5628C87.8669 24.074 88.1265 24.496 88.4489 24.8316C88.7688 25.1672 89.1515 25.4188 89.5919 25.5866C90.0376 25.7492 90.5279 25.8278 91.06 25.8278C91.5975 25.8278 92.0589 25.7649 92.4442 25.6391C92.8349 25.5132 93.1783 25.3769 93.4719 25.2301C93.7655 25.078 94.0198 24.9365 94.2374 24.8106C94.4524 24.6848 94.6674 24.6219 94.8771 24.6219C95.1497 24.6219 95.3542 24.7241 95.4958 24.926L96.4396 26.1319C96.0752 26.5671 95.6636 26.9289 95.2022 27.2225C94.746 27.5109 94.2715 27.7416 93.776 27.9146C93.2779 28.0902 92.7719 28.2108 92.2555 28.2816C91.7443 28.3498 91.2488 28.3865 90.7664 28.3865C89.8069 28.3865 88.9156 28.2292 88.0924 27.9146C87.2744 27.5948 86.5614 27.1255 85.9531 26.5094C85.3449 25.8881 84.8652 25.12 84.5165 24.2024C84.1652 23.2796 83.9922 22.2179 83.9922 21.0146C83.9922 20.0708 84.1416 19.1874 84.4431 18.3616C84.7498 17.5384 85.1876 16.8201 85.7539 16.2119C86.3254 15.5984 87.0228 15.1108 87.8407 14.7543C88.6586 14.3925 89.5815 14.209 90.6091 14.209C91.4743 14.209 92.2765 14.3505 93.0105 14.6284C93.7446 14.9089 94.3737 15.3153 94.8981 15.8448C95.4276 16.377 95.8418 17.0298 96.1355 17.8058C96.4343 18.5765 96.5864 19.4574 96.5864 20.4483C96.5864 20.9517 96.534 21.2925 96.4291 21.4655C96.3242 21.6412 96.1171 21.7277 95.8104 21.7277H87.2954Z" fill="#6F3DCB"/>
<path d="M102.164 16.1175C102.442 15.8396 102.735 15.5801 103.045 15.3415C103.351 15.1056 103.676 14.9063 104.02 14.7438C104.369 14.576 104.738 14.4475 105.131 14.3558C105.522 14.2588 105.952 14.209 106.421 14.209C107.168 14.209 107.832 14.3401 108.414 14.597C109.001 14.8486 109.486 15.2052 109.871 15.6666C110.262 16.128 110.556 16.6811 110.752 17.3234C110.954 17.9605 111.056 18.663 111.056 19.4312V28.1872H107.753V19.4312C107.753 18.5923 107.559 17.9421 107.176 17.4807C106.791 17.0193 106.204 16.7886 105.415 16.7886C104.84 16.7886 104.303 16.9197 103.8 17.1766C103.302 17.4361 102.83 17.7901 102.384 18.2357V28.1872H99.0703V14.4292H101.094C101.527 14.4292 101.81 14.6284 101.944 15.0269L102.164 16.1175Z" fill="#6F3DCB"/>
<path d="M122.838 17.9418C122.461 17.4883 122.047 17.1658 121.601 16.977C121.16 16.7883 120.683 16.6939 120.175 16.6939C119.677 16.6939 119.226 16.7883 118.822 16.977C118.423 17.1658 118.08 17.4489 117.794 17.8264C117.506 18.2039 117.286 18.6863 117.134 19.2735C116.979 19.8608 116.903 20.5529 116.903 21.3498C116.903 22.1547 116.966 22.8363 117.092 23.3947C117.223 23.9557 117.412 24.4118 117.658 24.7684C117.902 25.1197 118.195 25.3713 118.539 25.5234C118.888 25.6781 119.278 25.7541 119.713 25.7541C120.398 25.7541 120.982 25.6151 121.465 25.3346C121.947 25.0489 122.403 24.6399 122.838 24.1077V17.9418ZM126.152 8.25244V28.1869H124.128C123.688 28.1869 123.407 27.985 123.289 27.5787L123.006 26.2574C122.453 26.8945 121.816 27.4083 121.098 27.7989C120.377 28.1895 119.538 28.3861 118.581 28.3861C117.831 28.3861 117.144 28.2315 116.515 27.9247C115.891 27.6102 115.354 27.1566 114.9 26.5615C114.452 25.969 114.103 25.235 113.851 24.3594C113.605 23.4786 113.484 22.4771 113.484 21.3498C113.484 20.33 113.623 19.3837 113.904 18.508C114.182 17.6272 114.58 16.8669 115.099 16.222C115.616 15.5797 116.234 15.0764 116.955 14.712C117.682 14.3502 118.497 14.1667 119.399 14.1667C120.167 14.1667 120.825 14.2899 121.37 14.5337C121.915 14.7802 122.403 15.1052 122.838 15.509V8.25244H126.152Z" fill="#6F3DCB"/>
<path d="M138.288 19.7248C138.288 19.3001 138.228 18.8964 138.11 18.5189C137.989 18.1361 137.808 17.8005 137.564 17.5122C137.326 17.2264 137.022 17.0036 136.652 16.841C136.28 16.6733 135.847 16.5894 135.352 16.5894C134.4 16.5894 133.648 16.862 133.097 17.4073C132.544 17.9526 132.19 18.726 132.038 19.7248H138.288ZM131.975 21.7277C132.03 22.4355 132.156 23.0463 132.353 23.5628C132.547 24.074 132.806 24.496 133.129 24.8316C133.448 25.1672 133.831 25.4188 134.272 25.5866C134.717 25.7492 135.208 25.8278 135.74 25.8278C136.277 25.8278 136.739 25.7649 137.124 25.6391C137.515 25.5132 137.858 25.3769 138.152 25.2301C138.445 25.078 138.7 24.9365 138.917 24.8106C139.132 24.6848 139.347 24.6219 139.557 24.6219C139.829 24.6219 140.034 24.7241 140.175 24.926L141.119 26.1319C140.755 26.5671 140.343 26.9289 139.882 27.2225C139.426 27.5109 138.951 27.7416 138.456 27.9146C137.958 28.0902 137.452 28.2108 136.935 28.2816C136.424 28.3498 135.928 28.3865 135.446 28.3865C134.487 28.3865 133.595 28.2292 132.772 27.9146C131.954 27.5948 131.241 27.1255 130.633 26.5094C130.025 25.8881 129.545 25.12 129.196 24.2024C128.845 23.2796 128.672 22.2179 128.672 21.0146C128.672 20.0708 128.821 19.1874 129.123 18.3616C129.43 17.5384 129.867 16.8201 130.434 16.2119C131.005 15.5984 131.702 15.1108 132.52 14.7543C133.338 14.3925 134.261 14.209 135.289 14.209C136.154 14.209 136.956 14.3505 137.69 14.6284C138.424 14.9089 139.053 15.3153 139.578 15.8448C140.107 16.377 140.522 17.0298 140.815 17.8058C141.114 18.5765 141.266 19.4574 141.266 20.4483C141.266 20.9517 141.214 21.2925 141.109 21.4655C141.004 21.6412 140.797 21.7277 140.49 21.7277H131.975Z" fill="#6F3DCB"/>
<path d="M146.867 16.8095C147.292 15.9916 147.8 15.3493 148.388 14.8801C148.98 14.4056 149.68 14.167 150.485 14.167C151.119 14.167 151.631 14.3086 152.016 14.5864L151.806 17.0717C151.756 17.2342 151.691 17.3496 151.607 17.4177C151.523 17.4807 151.41 17.5121 151.271 17.5121C151.13 17.5121 150.928 17.4912 150.663 17.4492C150.404 17.402 150.149 17.3758 149.898 17.3758C149.533 17.3758 149.208 17.4335 148.922 17.5436C148.634 17.6484 148.377 17.8031 148.146 18.005C147.921 18.2016 147.722 18.4428 147.549 18.7285C147.373 19.0169 147.208 19.3446 147.056 19.7142V28.1872H143.742V14.4291H145.682C146.023 14.4291 146.262 14.4894 146.395 14.6074C146.526 14.728 146.618 14.943 146.668 15.2576L146.867 16.8095Z" fill="#6F3DCB"/>
<path d="M167.599 23.6152C167.793 23.6152 167.968 23.6939 168.123 23.8459L169.539 25.3874C168.755 26.36 167.787 27.1046 166.634 27.621C165.486 28.1401 164.109 28.397 162.502 28.397C161.06 28.397 159.765 28.1532 158.612 27.663C157.464 27.1753 156.486 26.4937 155.676 25.6181C154.863 24.7373 154.239 23.6886 153.799 22.4722C153.363 21.2558 153.148 19.9293 153.148 18.4874C153.148 17.0351 153.382 15.7033 153.851 14.4922C154.318 13.2757 154.973 12.2324 155.812 11.3568C156.656 10.4838 157.663 9.80216 158.832 9.31192C160.007 8.82431 161.307 8.57788 162.733 8.57788C164.143 8.57788 165.397 8.81382 166.487 9.28046C167.583 9.74186 168.516 10.3501 169.287 11.1051L168.081 12.7724C168.01 12.8851 167.919 12.9821 167.808 13.066C167.696 13.1447 167.541 13.1814 167.347 13.1814C167.205 13.1814 167.067 13.1447 166.928 13.066C166.786 12.99 166.629 12.8956 166.456 12.7829C166.288 12.6728 166.091 12.5496 165.868 12.4159C165.643 12.2848 165.386 12.1616 165.092 12.0488C164.799 11.9387 164.455 11.8444 164.065 11.7657C163.672 11.6897 163.221 11.6504 162.712 11.6504C161.844 11.6504 161.05 11.805 160.332 12.1118C159.611 12.4211 158.992 12.8668 158.476 13.454C157.956 14.0412 157.555 14.7596 157.27 15.6037C156.981 16.4505 156.84 17.4126 156.84 18.4874C156.84 19.578 156.992 20.5506 157.301 21.4026C157.608 22.2494 158.025 22.9651 158.549 23.5523C159.079 24.1343 159.702 24.5774 160.416 24.8841C161.134 25.1934 161.907 25.3455 162.733 25.3455C163.221 25.3455 163.666 25.3219 164.065 25.2721C164.463 25.217 164.83 25.1305 165.166 25.0099C165.501 24.8919 165.816 24.7425 166.11 24.559C166.409 24.3781 166.71 24.15 167.011 23.8774C167.095 23.8014 167.185 23.7385 167.284 23.6886C167.389 23.6415 167.494 23.6152 167.599 23.6152Z" fill="#6F3DCB"/>
<path d="M178.774 22.3148C177.814 22.3568 177.012 22.4407 176.362 22.5665C175.712 22.6871 175.187 22.8392 174.789 23.0279C174.395 23.2114 174.118 23.4264 173.95 23.6781C173.782 23.9297 173.698 24.2024 173.698 24.496C173.698 25.078 173.869 25.4922 174.212 25.7439C174.553 25.9955 175.001 26.1214 175.554 26.1214C176.238 26.1214 176.826 26.0008 177.316 25.7544C177.811 25.5105 178.296 25.1357 178.774 24.6323V22.3148ZM171.181 16.3481C172.767 14.8958 174.673 14.167 176.897 14.167C177.699 14.167 178.42 14.3007 179.057 14.5655C179.691 14.8329 180.226 15.1999 180.661 15.6665C181.102 16.1358 181.437 16.6994 181.668 17.3548C181.899 18.005 182.014 18.718 182.014 19.494V28.1872H180.504C180.189 28.1872 179.948 28.1426 179.78 28.0509C179.612 27.9539 179.479 27.7625 179.382 27.4741L179.088 26.4884C178.737 26.7977 178.396 27.0704 178.061 27.3063C177.73 27.5449 177.389 27.7441 177.033 27.904C176.676 28.0666 176.291 28.1872 175.879 28.2711C175.473 28.355 175.025 28.3969 174.537 28.3969C173.955 28.3969 173.418 28.3183 172.922 28.1662C172.432 28.0142 172.01 27.7782 171.653 27.4636C171.297 27.149 171.019 26.761 170.825 26.2996C170.628 25.833 170.531 25.2903 170.531 24.6743C170.531 24.3256 170.586 23.9795 170.699 23.6361C170.817 23.2953 171.006 22.965 171.265 22.6504C171.53 22.3358 171.874 22.0422 172.293 21.7696C172.718 21.4917 173.237 21.2505 173.845 21.046C174.458 20.8363 175.171 20.6685 175.984 20.5427C176.802 20.4116 177.73 20.3303 178.774 20.3015V19.494C178.774 18.5712 178.577 17.8896 178.186 17.4492C177.793 17.0088 177.227 16.7886 176.488 16.7886C175.947 16.7886 175.502 16.8515 175.145 16.9773C174.794 17.1032 174.485 17.2447 174.212 17.3968C173.945 17.5514 173.701 17.6904 173.478 17.8162C173.26 17.9421 173.019 18.005 172.754 18.005C172.524 18.005 172.327 17.9473 172.167 17.8267C172.005 17.7087 171.876 17.5698 171.779 17.4073L171.181 16.3481Z" fill="#6F3DCB"/>
<path d="M188.234 16.8095C188.659 15.9916 189.168 15.3493 189.755 14.8801C190.347 14.4056 191.047 14.167 191.852 14.167C192.487 14.167 192.998 14.3086 193.383 14.5864L193.173 17.0717C193.124 17.2342 193.058 17.3496 192.974 17.4177C192.89 17.4807 192.778 17.5121 192.639 17.5121C192.497 17.5121 192.295 17.4912 192.03 17.4492C191.771 17.402 191.517 17.3758 191.265 17.3758C190.901 17.3758 190.575 17.4335 190.29 17.5436C190.001 17.6484 189.744 17.8031 189.514 18.005C189.288 18.2016 189.089 18.4428 188.916 18.7285C188.74 19.0169 188.575 19.3446 188.423 19.7142V28.1872H185.109V14.4291H187.049C187.39 14.4291 187.629 14.4894 187.762 14.6074C187.894 14.728 187.985 14.943 188.035 15.2576L188.234 16.8095Z" fill="#6F3DCB"/>
<path d="M203.983 19.7248C203.983 19.3001 203.923 18.8964 203.805 18.5189C203.684 18.1361 203.503 17.8005 203.26 17.5122C203.021 17.2264 202.717 17.0036 202.347 16.841C201.975 16.6733 201.543 16.5894 201.047 16.5894C200.095 16.5894 199.343 16.862 198.792 17.4073C198.239 17.9526 197.885 18.726 197.733 19.7248H203.983ZM197.67 21.7277C197.725 22.4355 197.851 23.0463 198.048 23.5628C198.242 24.074 198.501 24.496 198.824 24.8316C199.144 25.1672 199.527 25.4188 199.967 25.5866C200.413 25.7492 200.903 25.8278 201.435 25.8278C201.972 25.8278 202.434 25.7649 202.819 25.6391C203.21 25.5132 203.553 25.3769 203.847 25.2301C204.141 25.078 204.395 24.9365 204.612 24.8106C204.827 24.6848 205.042 24.6219 205.252 24.6219C205.525 24.6219 205.729 24.7241 205.871 24.926L206.815 26.1319C206.45 26.5671 206.039 26.9289 205.577 27.2225C205.121 27.5109 204.647 27.7416 204.151 27.9146C203.653 28.0902 203.147 28.2108 202.63 28.2816C202.119 28.3498 201.624 28.3865 201.141 28.3865C200.182 28.3865 199.291 28.2292 198.467 27.9146C197.649 27.5948 196.936 27.1255 196.328 26.5094C195.72 25.8881 195.24 25.12 194.892 24.2024C194.54 23.2796 194.367 22.2179 194.367 21.0146C194.367 20.0708 194.517 19.1874 194.818 18.3616C195.125 17.5384 195.563 16.8201 196.129 16.2119C196.7 15.5984 197.398 15.1108 198.216 14.7543C199.034 14.3925 199.956 14.209 200.984 14.209C201.849 14.209 202.651 14.3505 203.386 14.6284C204.12 14.9089 204.749 15.3153 205.273 15.8448C205.803 16.377 206.217 17.0298 206.51 17.8058C206.809 18.5765 206.961 19.4574 206.961 20.4483C206.961 20.9517 206.909 21.2925 206.804 21.4655C206.699 21.6412 206.492 21.7277 206.185 21.7277H197.67Z" fill="#6F3DCB"/>
</svg>
